<?xml version="1.0" standalone="no"?>
<!DOCTYPE svg PUBLIC "-//W3C//DTD SVG 20010904//EN"
 "http://www.w3.org/TR/2001/REC-SVG-20010904/DTD/svg10.dtd">
<svg version="1.0" xmlns="http://www.w3.org/2000/svg"
 width="512.000000pt" height="512.000000pt" viewBox="0 0 512.000000 512.000000"
 preserveAspectRatio="xMidYMid meet">
<metadata>
Created by potrace 1.11, written by Peter Selinger 2001-2013
</metadata>
<g transform="translate(0.000000,512.000000) scale(0.100000,-0.100000)"
fill="#000000" stroke="none">
<path d="M423 4531 c-86 -31 -143 -80 -181 -153 l-27 -53 0 -1320 0 -1320 24
-45 c23 -44 114 -140 133 -140 6 0 26 -8 46 -17 32 -15 69 -18 254 -18 213 0
218 0 211 -20 -43 -136 -6 -285 98 -385 29 -28 55 -50 60 -50 22 0 5 -17 -28
-29 -102 -36 -226 -138 -290 -239 -31 -47 -83 -153 -83 -167 0 -8 1169 -5
1173 3 7 10 -51 126 -90 183 -50 72 -156 164 -234 201 -63 30 -85 48 -59 48
29 0 144 131 156 179 2 9 10 37 17 64 13 46 9 150 -8 190 -8 20 -33 18 268 20
l218 2 -5 -25 c-3 -14 -9 -53 -12 -86 -13 -118 56 -265 151 -327 19 -12 35
-26 35 -31 0 -5 -3 -7 -6 -3 -11 11 -155 -72 -215 -124 -62 -54 -135 -154
-169 -233 -11 -26 -20 -52 -20 -57 0 -5 237 -9 585 -9 512 0 585 2 585 15 0
27 -80 168 -127 222 -55 65 -133 124 -213 162 l-59 28 44 31 c24 17 60 53 79
79 141 192 69 468 -146 563 -152 67 -340 24 -439 -101 l-31 -40 -42 24 c-22
14 -94 52 -159 86 -65 34 -131 77 -147 94 -35 39 -60 106 -60 161 0 78 82 204
134 207 72 5 44 17 529 -220 159 -78 292 -141 295 -141 4 0 17 24 30 54 56
130 177 233 340 290 23 8 42 13 42 10 0 -2 9 0 19 5 11 6 57 13 104 17 80 5
87 4 104 -16 64 -78 221 -248 282 -307 l34 -32 87 110 c48 60 119 144 158 188
68 74 74 78 109 75 69 -5 105 -15 156 -42 61 -33 197 -163 197 -189 0 -3 6
-14 14 -22 29 -33 92 -171 132 -291 l42 -125 73 1 c129 1 231 63 291 176 l23
43 1 1295 c1 800 -2 1310 -8 1335 -5 22 -16 54 -23 71 -20 42 -95 110 -153
137 l-47 22 -2100 2 c-2031 2 -2102 2 -2152 -16z m3297 -1327 c71 -28 164 -90
210 -140 39 -42 110 -175 110 -206 0 -7 7 -31 14 -53 8 -22 17 -60 20 -85 3
-25 8 -56 11 -70 7 -32 13 -331 7 -392 -3 -38 -8 -49 -25 -54 -12 -4 -23 -7
-24 -6 -2 0 -17 -4 -35 -9 -30 -8 -95 -20 -124 -22 -21 -1 -74 47 -74 67 0 12
15 32 35 46 43 32 107 130 130 200 49 146 6 379 -79 431 -38 23 -71 26 -38 3
l22 -15 -27 -23 c-94 -78 -207 -126 -299 -126 -48 0 -123 25 -217 74 -37 19
-74 33 -82 30 -22 -9 -57 -130 -59 -209 -6 -140 39 -267 124 -350 l48 -48 -23
-41 c-13 -22 -29 -42 -37 -44 -7 -1 -58 8 -112 21 l-99 23 -13 44 c-32 104
-46 302 -29 380 3 14 9 41 12 60 12 64 62 192 102 259 80 133 188 230 297 265
62 20 191 15 254 -10z"/>
<path d="M3618 1705 c-2 -2 -24 -5 -50 -8 -25 -3 -69 -17 -97 -32 -192 -97
-267 -317 -171 -505 30 -58 77 -112 122 -140 l28 -17 -85 -42 c-137 -68 -252
-192 -313 -336 l-21 -50 586 -3 c323 -1 588 0 591 2 7 7 -53 130 -88 181 -62
91 -143 160 -241 207 -65 32 -85 48 -56 48 8 0 38 23 67 52 73 71 111 156 112
252 2 82 -3 108 -30 169 -51 116 -162 198 -292 215 -33 5 -61 8 -62 7z"/>
</g>
</svg>
